<?xml version="1.0" encoding="utf-8"?>
<!-- Generator: Adobe Illustrator 26.4.1, SVG Export Plug-In . SVG Version: 6.00 Build 0)  -->
<svg version="1.1" id="Layer_1" xmlns="http://www.w3.org/2000/svg" xmlns:xlink="http://www.w3.org/1999/xlink" x="0px" y="0px"
	 viewBox="0 0 300 100" style="enable-background:new 0 0 300 100;" xml:space="preserve">
<style type="text/css">
	.st0{fill:#FFFFFF;}
	.st1{fill:#231F20;}
	.st2{fill:#FED007;}
	.st3{fill:#FEE71F;}
	.st4{fill:#FFFFFF;stroke:#231F20;stroke-miterlimit:10;}
</style>
<g>
	<rect x="28.2" y="13.6" class="st0" width="9.8" height="74.4"/>
	<g>
		<g>
			<path class="st1" d="M38.1,88.7h-9.9c-0.4,0-0.8-0.3-0.8-0.8V65.6c0-0.3,0.2-0.6,0.5-0.7l9.9-2.8c0.2-0.1,0.5,0,0.7,0.1
				c0.2,0.1,0.3,0.4,0.3,0.6V88C38.8,88.4,38.5,88.7,38.1,88.7z M29,87.2h8.4V63.7L29,66.1V87.2z M28.2,51.4c-0.2,0-0.3-0.1-0.5-0.2
				c-0.2-0.1-0.3-0.4-0.3-0.6v-3.5c0-0.2,0.1-0.4,0.3-0.6c0.2-0.1,0.4-0.2,0.6-0.2l8.1,1.1c0.4,0,0.6,0.3,0.6,0.7
				c0,0.4-0.2,0.7-0.5,0.8l-8.1,2.3C28.4,51.4,28.3,51.4,28.2,51.4z M29,48v1.6l3.8-1.1L29,48z M38.1,34.8c0,0-0.1,0-0.1,0l-7.6-1.1
				c0,0,0,0,0,0l-2.3-0.3c-0.4-0.1-0.6-0.4-0.6-0.7c0,0,0-0.1,0-0.1c0.1-0.4,0.4-0.7,0.8-0.6l2.2,0.3l7.5-1.5c0.2,0,0.4,0,0.6,0.2
				c0.2,0.1,0.3,0.4,0.3,0.6V34c0,0.2-0.1,0.4-0.3,0.6C38.4,34.7,38.3,34.8,38.1,34.8z M35,32.9l2.3,0.3v-0.8L35,32.9z M28.2,22.5
				c-0.2,0-0.3-0.1-0.5-0.2c-0.2-0.1-0.3-0.4-0.3-0.6v-8c0-0.4,0.3-0.8,0.8-0.8h9.9c0.4,0,0.8,0.3,0.8,0.8v6c0,0.4-0.3,0.7-0.6,0.7
				l-9.9,1.9C28.3,22.5,28.3,22.5,28.2,22.5z M29,14.5v6.3l8.4-1.6v-4.7H29z"/>
		</g>
	</g>
	<g>
		<g>
			<g>
				<polygon class="st0" points="20.1,23.3 44.8,18.5 52.8,22.4 47,29.8 30.5,33 21.8,31.8 				"/>
			</g>
		</g>
		<g>
			<g>
				<polygon class="st2" points="22,24.5 45.4,19.9 53,23.5 47.5,30.6 31.8,33.6 23.5,32.5 				"/>
			</g>
		</g>
		<g>
			<g>
				<path class="st1" d="M30.5,33.7c0,0-0.1,0-0.1,0l-8.7-1.2c-0.3,0-0.6-0.3-0.6-0.6l-1.6-8.4c0-0.2,0-0.4,0.1-0.6
					c0.1-0.2,0.3-0.3,0.5-0.3l24.6-4.8c0.2,0,0.3,0,0.5,0.1l8,3.8c0.2,0.1,0.4,0.3,0.4,0.5c0.1,0.2,0,0.5-0.1,0.6l-5.8,7.4
					c-0.1,0.1-0.3,0.2-0.4,0.3l-16.5,3.2C30.6,33.7,30.6,33.7,30.5,33.7z M22.4,31.1l8.1,1.1l16.1-3.1l5.1-6.4l-6.9-3.3L21,23.9
					L22.4,31.1z"/>
			</g>
		</g>
	</g>
	<g>
		<g>
			<g>
				<polygon class="st0" points="20.9,67.6 57.8,57.1 64.4,48.2 53.6,43.4 16.7,53.9 				"/>
			</g>
		</g>
		<g>
			<g>
				<polygon class="st2" points="22.9,68 57.9,58.1 64.2,49.5 53.9,45 18.9,55 				"/>
			</g>
		</g>
		<g>
			<g>
				<path class="st1" d="M20.9,68.4c-0.3,0-0.6-0.2-0.7-0.5L16,54.1c-0.1-0.2,0-0.4,0.1-0.6c0.1-0.2,0.3-0.3,0.5-0.4l36.9-10.5
					c0.2,0,0.3,0,0.5,0l10.8,4.8c0.2,0.1,0.4,0.3,0.4,0.5c0.1,0.2,0,0.5-0.1,0.6l-6.6,9c-0.1,0.1-0.2,0.2-0.4,0.3L21.1,68.4
					C21,68.4,21,68.4,20.9,68.4z M17.7,54.4l3.8,12.3l35.9-10.2l5.9-8l-9.7-4.3L17.7,54.4z"/>
			</g>
		</g>
	</g>
	<g>
		<g>
			<g>
				<polygon class="st0" points="49.6,35.7 18.4,31.3 8.6,36.6 16.4,45.5 36.4,48.3 48.3,44.9 				"/>
			</g>
		</g>
		<g>
			<g>
				<polygon class="st2" points="49.6,36.9 19.9,32.7 10.6,37.8 18,46.2 37,48.9 48.3,45.7 				"/>
			</g>
		</g>
		<g>
			<g>
				<path class="st1" d="M36.4,49.1c0,0-0.1,0-0.1,0l-20-2.8c-0.2,0-0.3-0.1-0.5-0.2L8,37.1c-0.1-0.2-0.2-0.4-0.2-0.6
					c0-0.2,0.2-0.4,0.4-0.5l9.8-5.4c0.1-0.1,0.3-0.1,0.5-0.1l31.2,4.4c0.2,0,0.4,0.1,0.5,0.3c0.1,0.2,0.2,0.4,0.1,0.6L49,45
					c0,0.3-0.3,0.5-0.5,0.6L36.6,49C36.5,49,36.4,49.1,36.4,49.1z M16.8,44.8l19.5,2.7l11.3-3.2l1.1-8l-30.2-4.2l-8.7,4.8L16.8,44.8
					z"/>
			</g>
		</g>
	</g>
	<g>
		<g>
			<g>
				<path class="st0" d="M36.5,24.1c0.9,0,1.6,0.7,1.6,1.6c0,0.9-0.7,1.6-1.6,1.6c-0.9,0-1.6-0.7-1.6-1.6
					C34.9,24.9,35.6,24.1,36.5,24.1z"/>
			</g>
		</g>
		<g>
			<g>
				<path class="st3" d="M37.5,25.2c0.8,0,1.5,0.7,1.5,1.5c0,0.8-0.7,1.5-1.5,1.5c-0.8,0-1.5-0.7-1.5-1.5
					C36,25.9,36.6,25.2,37.5,25.2z"/>
			</g>
		</g>
		<g>
			<g>
				<path class="st1" d="M36.5,28.1c-1.3,0-2.3-1-2.3-2.3c0-1.3,1.1-2.3,2.3-2.3c1.3,0,2.3,1.1,2.3,2.3C38.8,27,37.8,28.1,36.5,28.1
					z M36.5,24.9c-0.5,0-0.8,0.4-0.8,0.8c0,0.5,0.4,0.8,0.8,0.8c0.5,0,0.8-0.4,0.8-0.8C37.3,25.3,36.9,24.9,36.5,24.9z"/>
			</g>
		</g>
	</g>
	<g>
		<g>
			<g>
				<path class="st0" d="M29.1,38.1c0.9,0,1.6,0.7,1.6,1.6c0,0.9-0.7,1.6-1.6,1.6c-0.9,0-1.6-0.7-1.6-1.6
					C27.5,38.8,28.2,38.1,29.1,38.1z"/>
			</g>
		</g>
		<g>
			<g>
				<path class="st3" d="M30.1,39.2c0.8,0,1.5,0.7,1.5,1.5c0,0.8-0.7,1.5-1.5,1.5c-0.8,0-1.5-0.7-1.5-1.5
					C28.6,39.8,29.3,39.2,30.1,39.2z"/>
			</g>
		</g>
		<g>
			<g>
				<path class="st1" d="M29.1,42c-1.3,0-2.3-1.1-2.3-2.3c0-1.3,1-2.3,2.3-2.3c1.3,0,2.3,1,2.3,2.3C31.4,40.9,30.4,42,29.1,42z
					 M29.1,38.8c-0.5,0-0.8,0.4-0.8,0.8c0,0.5,0.4,0.8,0.8,0.8c0.5,0,0.8-0.4,0.8-0.8C29.9,39.2,29.6,38.8,29.1,38.8z"/>
			</g>
		</g>
	</g>
	<g>
		<g>
			<g>
				<path class="st0" d="M40.5,52.9c0.9,0,1.6,0.7,1.6,1.6c0,0.9-0.7,1.6-1.6,1.6c-0.9,0-1.6-0.7-1.6-1.6
					C39,53.6,39.7,52.9,40.5,52.9z"/>
			</g>
		</g>
		<g>
			<g>
				<path class="st3" d="M41.6,53.9c0.8,0,1.5,0.7,1.5,1.5c0,0.8-0.7,1.5-1.5,1.5c-0.8,0-1.5-0.7-1.5-1.5
					C40,54.6,40.7,53.9,41.6,53.9z"/>
			</g>
		</g>
		<g>
			<g>
				<path class="st1" d="M40.5,56.8c-1.3,0-2.3-1.1-2.3-2.3c0-1.3,1.1-2.3,2.3-2.3s2.3,1,2.3,2.3C42.9,55.7,41.8,56.8,40.5,56.8z
					 M40.5,53.6c-0.5,0-0.8,0.4-0.8,0.8c0,0.5,0.4,0.8,0.8,0.8c0.5,0,0.8-0.4,0.8-0.8C41.4,54,41,53.6,40.5,53.6z"/>
			</g>
		</g>
	</g>
</g>
<g>
	<path class="st4" d="M129,18.2c0.9,1.5,1.4,3.2,1.5,4.9c0.1,1.8,0.2,3.6,0.2,5.6v3h0c-0.1,1.3-0.2,2.6-0.4,3.9
		c-0.2,1.2-0.6,2.4-1.3,3.5c-1.1,1.9-2.7,3.3-4.7,4.2c-1.8,0.9-4.3,1.3-7.3,1.3c-3,0-5.4-0.4-7.3-1.3c-2-0.9-3.6-2.3-4.7-4.2
		c-0.9-1.5-1.4-3.2-1.5-5c-0.1-1.8-0.2-3.6-0.2-5.5v-3h0c0.1-1.3,0.2-2.6,0.4-3.9c0.2-1.2,0.6-2.4,1.3-3.5c1.1-1.9,2.6-3.3,4.7-4.2
		c1.9-0.9,4.3-1.3,7.3-1.3c3,0,5.4,0.4,7.3,1.3C126.4,14.9,127.9,16.3,129,18.2z M123.6,28.7c0-1.4,0-2.8-0.1-4
		c-0.1-1.3-0.3-2.2-0.7-2.9c-0.1-0.1-0.2-0.3-0.3-0.5c-0.2-0.2-0.5-0.4-0.9-0.6c-0.4-0.2-1-0.4-1.7-0.5c-0.7-0.1-1.7-0.2-2.8-0.2
		c-1.2,0-2.1,0.1-2.8,0.2c-0.7,0.1-1.3,0.3-1.7,0.5c-0.4,0.2-0.7,0.4-0.8,0.6c-0.2,0.2-0.3,0.3-0.3,0.5c-0.4,0.7-0.7,1.7-0.7,2.9
		c-0.1,1.2-0.1,2.5-0.1,3.9v0.1c0,1.4,0,2.8,0.1,4c0.1,1.3,0.3,2.2,0.7,2.9c0.1,0.1,0.2,0.2,0.3,0.4c0.2,0.2,0.4,0.4,0.8,0.6
		c0.4,0.2,1,0.4,1.7,0.5c0.7,0.1,1.7,0.2,2.8,0.2c1.2,0,2.1-0.1,2.8-0.2c0.7-0.1,1.3-0.3,1.7-0.5c0.4-0.2,0.7-0.4,0.9-0.6
		c0.2-0.2,0.3-0.4,0.3-0.4c0.4-0.7,0.6-1.7,0.7-2.9C123.5,31.5,123.6,30.1,123.6,28.7L123.6,28.7z"/>
	<path class="st4" d="M161.1,13.6v15.5c0,1.9-0.1,3.7-0.2,5.4c-0.2,1.7-0.6,3.4-1.5,4.9c-1,1.8-2.6,3.2-4.6,4.1
		c-0.9,0.4-2,0.7-3.2,0.9c-1.2,0.2-2.5,0.3-4,0.3c-1.4,0-2.8-0.1-3.9-0.3c-1.2-0.2-2.2-0.5-3.2-0.9c-2-0.9-3.5-2.2-4.6-4.1
		c-0.4-0.7-0.7-1.5-1-2.3c-0.2-0.8-0.4-1.7-0.5-2.5c-0.1-0.9-0.2-1.7-0.2-2.6c0-0.9,0-1.8,0-2.8V13.6h7.1v15.5c0,1.4,0,2.7,0.1,3.9
		s0.3,2.2,0.7,2.8c0.1,0.1,0.2,0.2,0.3,0.4c0.2,0.2,0.4,0.4,0.8,0.6c0.4,0.2,0.9,0.4,1.6,0.5c0.7,0.1,1.6,0.2,2.8,0.2
		c1.2,0,2.1-0.1,2.8-0.2c0.7-0.1,1.3-0.3,1.7-0.5c0.4-0.2,0.7-0.4,0.8-0.6c0.1-0.2,0.3-0.3,0.3-0.4c0.4-0.7,0.6-1.6,0.7-2.9
		c0.1-1.2,0.1-2.5,0.1-3.9V13.6H161.1z"/>
	<path class="st4" d="M181.4,13.5c1.9,0,3.6,0.4,5.2,1.1c1.6,0.7,3.1,1.7,4.3,2.9c1.2,1.2,2.2,2.7,2.9,4.3c0.7,1.7,1.1,3.4,1.1,5.3
		c0,1.6-0.3,3.1-0.8,4.5c-0.5,1.5-1.3,2.8-2.3,4c-1.5,1.9-3.4,3.2-5.7,4.1l1.9,4.9h-7.6l-1.4-3.8c-0.1-0.2-0.2-0.3-0.4-0.3h-6.1
		c-0.2,0-0.4,0.1-0.4,0.4v3.6h-7.1V13.5H181.4z M181.3,33.5c0.9,0,1.7-0.2,2.5-0.5c0.8-0.3,1.5-0.8,2.1-1.4c0.6-0.6,1.1-1.3,1.4-2
		c0.3-0.8,0.5-1.6,0.5-2.5c0-0.9-0.2-1.7-0.5-2.5c-0.3-0.8-0.8-1.5-1.4-2.1c-0.6-0.6-1.3-1.1-2.1-1.4c-0.8-0.3-1.6-0.5-2.5-0.5h-8.8
		c-0.2,0-0.4,0.1-0.4,0.4v12.1c0,0.2,0.1,0.4,0.4,0.4H181.3z"/>
	<path class="st4" d="M71.9,13.6v7.1h9.9c0.2,0,0.3,0.1,0.3,0.3v16.3h-0.3c0.2,0,0.3,0.2,0.3,0.7v6.6v44.3h7.1V44.6V38
		c0-0.4,0.1-0.7,0.3-0.7h-0.3V21c0-0.2,0.1-0.3,0.3-0.3h9.8v-7.1H71.9z"/>
	<path class="st4" d="M119.7,57.8c1.9,0,3.6,0.4,5.2,1.1c1.6,0.7,3.1,1.7,4.3,2.9c1.2,1.2,2.2,2.7,2.9,4.3c0.7,1.7,1.1,3.4,1.1,5.3
		c0,1.6-0.3,3.1-0.8,4.5c-0.5,1.5-1.3,2.8-2.3,4c-1.5,1.9-3.4,3.2-5.7,4.1l1.9,4.9h-7.6l-1.4-3.8c-0.1-0.2-0.2-0.3-0.4-0.3h-6.1
		c-0.2,0-0.4,0.1-0.4,0.4v3.6h-7.1V57.8H119.7z M119.6,77.8c0.9,0,1.7-0.2,2.5-0.5c0.8-0.3,1.5-0.8,2.1-1.4c0.6-0.6,1.1-1.3,1.4-2
		s0.5-1.6,0.5-2.5c0-0.9-0.2-1.7-0.5-2.5c-0.3-0.8-0.8-1.5-1.4-2.1c-0.6-0.6-1.3-1.1-2.1-1.4c-0.8-0.3-1.6-0.5-2.5-0.5h-8.8
		c-0.2,0-0.4,0.1-0.4,0.4v12.1c0,0.2,0.1,0.4,0.4,0.4H119.6z"/>
	<path class="st4" d="M145.1,65c-0.2,0-0.4,0.1-0.4,0.4v5.9c0,0.3,0.1,0.4,0.4,0.4h14.4v7h-14.4c-0.2,0-0.4,0.1-0.4,0.4v2.3
		c0,0.2,0.1,0.4,0.4,0.4h17.8v7.1h-25.2v-31h25.2V65H145.1z"/>
	<path class="st4" d="M180.6,73.4L194,88.9h-9.3l-9-10.5c-0.1-0.1-0.3-0.2-0.5-0.1c-0.2,0.1-0.3,0.2-0.3,0.4v10.1h-7.3v-31h7.3V68
		c0,0.2,0.1,0.3,0.3,0.4c0.2,0.1,0.3,0,0.5-0.1l9-10.4h9.3L180.6,73.4z"/>
	<path class="st4" d="M211.7,73.4l13.5,15.5h-9.3l-9-10.5c-0.1-0.1-0.3-0.2-0.5-0.1c-0.2,0.1-0.3,0.2-0.3,0.4v10.1h-7.3v-31h7.3V68
		c0,0.2,0.1,0.3,0.3,0.4c0.2,0.1,0.3,0,0.5-0.1l9-10.4h9.3L211.7,73.4z"/>
	<path class="st4" d="M237.4,65c-0.2,0-0.4,0.1-0.4,0.4v5.9c0,0.3,0.1,0.4,0.4,0.4h14.4v7h-14.4c-0.2,0-0.4,0.1-0.4,0.4v2.3
		c0,0.2,0.1,0.4,0.4,0.4h17.8v7.1H230v-31h25.2V65H237.4z"/>
	<path class="st4" d="M277.6,57.8c1.9,0,3.6,0.4,5.2,1.1c1.6,0.7,3.1,1.7,4.3,2.9c1.2,1.2,2.2,2.7,2.9,4.3c0.7,1.7,1.1,3.4,1.1,5.3
		c0,1.6-0.3,3.1-0.8,4.5c-0.5,1.5-1.3,2.8-2.3,4c-1.5,1.9-3.4,3.2-5.7,4.1l1.9,4.9h-7.6l-1.4-3.8c-0.1-0.2-0.2-0.3-0.4-0.3h-6.1
		c-0.2,0-0.4,0.1-0.4,0.4v3.6h-7.1V57.8H277.6z M277.5,77.8c0.9,0,1.7-0.2,2.5-0.5c0.8-0.3,1.5-0.8,2.1-1.4c0.6-0.6,1.1-1.3,1.4-2
		s0.5-1.6,0.5-2.5c0-0.9-0.2-1.7-0.5-2.5c-0.3-0.8-0.8-1.5-1.4-2.1c-0.6-0.6-1.3-1.1-2.1-1.4c-0.8-0.3-1.6-0.5-2.5-0.5h-8.8
		c-0.2,0-0.4,0.1-0.4,0.4v12.1c0,0.2,0.1,0.4,0.4,0.4H277.5z"/>
</g>
</svg>
